<svg version="1" xmlns="http://www.w3.org/2000/svg" width="346.667" height="346.667" viewBox="0 0 260.000000 260.000000"><path d="M114.5.6C86.3 4.9 63.3 15.3 44.2 32.4 22.5 51.8 8.5 75.8 2.4 104c-2.3 10.7-2.6 38.9-.5 49.5 5.3 27.1 18.1 50.5 38.2 70 19.7 19.1 43.5 31 70.2 34.9 41 6.1 80.1-6.4 109.8-35.1 25.1-24.3 38.3-53.9 39.6-88.8 1.4-37.4-12.4-71.4-39.7-97.9-17.8-17.3-37.7-28.1-62-33.7-8.3-2-36.1-3.4-43.5-2.3zm34.4 3c27.2 4 51.1 16.2 71.2 36.3C239.3 59.1 250 79 255.7 106c2.4 11.7 2.4 36.3 0 48-8.3 39.4-31.8 70.8-66.7 89.4-18.3 9.7-36.6 14-59 14-27.3 0-47.7-6-71-21.1-10.4-6.8-27.7-23.9-34.7-34.3-10.8-16.1-18-34.7-20.7-53.1C-8.9 63.8 63.8-8.9 148.9 3.6z"/><path d="M104 46.4c0 .2.8 1 1.8 1.7 1.5 1.3 1.6 1.2.3-.4s-2.1-2.1-2.1-1.3zM82.2 50.4c-2.9 2.7-3.2 3.4-1.7 3.2 1.1-.2 2-.7 2-1.2 0-1.5 1.5-3.4 2.7-3.4.6 0 .5.7-.3 1.7-1.1 1.5-1.1 1.6.1.6 1.3-1.2 2.3-4.3 1.4-4.3-.2 0-2.1 1.5-4.2 3.4zM89 48.5c0 .5.5 1.7 1 2.5s1 1 1 .5c0-.6-.5-1.7-1-2.5s-1-1.1-1-.5zM103 48.4c0 .2.8 1 1.8 1.7 1.5 1.3 1.6 1.2.3-.4s-2.1-2.1-2.1-1.3zM49 64.5c0 11.9.4 16.3 1.5 18.5 1.5 2.8 1.6 2.9 10 2.9 11.7-.1 11.6 0 11.6-20.6 0-15.1-.1-15.8-2-16.1-2-.3-2.1.2-2.3 15.5-.3 15-.4 15.8-2.3 15.8-1.8 0-2-.8-2.3-9.3-.2-7.2-.6-9.4-1.8-9.9-2.4-.9-2.9.4-3.4 10-.4 7.3-.8 9.2-2 9.2s-1.6-2.6-2-15.5c-.5-15.1-.6-15.5-2.7-15.8l-2.3-.3v15.6zM118.2 67.2c.3 17.5.4 18.3 2.3 18.3 1.8 0 2-.8 2.3-9.8.1-5.3.6-9.7 1-9.7s3.8 4.5 7.6 10 7.5 10 8.2 10c3.1 0 2.3-2.8-3.4-11l-6-8.8 3.9-.6c2.2-.3 4.8-1.5 5.9-2.6 2.6-2.6 2.6-8-.1-11.4-2-2.5-2.4-2.6-12-2.6H118l.2 18.2zm17.6-13.3c.8.5 1.2 2.1 1 3.7-.3 2.8-.4 2.9-7 3.2l-6.8.3V53h5.8c3.1 0 6.3.4 7 .9zM153 67.5v18.6l11.3-.3c10.4-.3 11.2-.4 11.2-2.3 0-1.8-.8-2-9.2-2.3l-9.3-.3V65c0-15.3-.1-16-2-16s-2 .7-2 18.5zM187.5 50c-.9 1.5.4 3 2.6 3 1.8 0 1.9.8 1.9 14 0 10.8-.3 14-1.3 14-1.9 0-3.6 2-3 3.6.6 1.7 11.4 1.9 14.4.4 2.4-1.3 8.9-14.1 8.9-17.5 0-2.7-5.1-13.8-7.8-16.8-1.2-1.3-3.1-1.7-8.3-1.7-3.7 0-7.1.4-7.4 1zm15.5 9c1.6 3.3 3 6.9 3 8 0 3.1-5.8 14-7.5 14-1.3 0-1.5-2.3-1.5-14 0-16.4 1.1-17.8 6-8zM105.6 52.5c-1.1.8-1.6 1.5-1 1.5.5 0 1.8-.7 2.8-1.5 1.1-.8 1.6-1.5 1-1.5-.5 0-1.8.7-2.8 1.5zM112.7 53.1c1.2 1.2 2.5 2 2.8 1.7.3-.3-.7-1.3-2.2-2.3l-2.8-1.7 2.2 2.3zM94.5 53c-.4.6-1.1.8-1.6.5-.5-.3-.6.1-.3 1 .4.9.7 1.5.8 1.3.1-.2.8-1.1 1.5-2.1.7-.9 1.1-1.7.8-1.7-.3 0-.9.5-1.2 1zM99.3 59.2c-1.3 1.2-2.6 1.9-3 1.4-.4-.4-.1-1.2.7-1.7 1.3-.9 1.3-1 0-.6-.8.2-1.5 1-1.5 1.8 0 2.4 2.9 2 4.8-.6 2.2-3.1 1.8-3.2-1-.3zM108.5 60.7c2.5 2.5 3.3 2.9 5.3 2 1.2-.6 2.2-1.4 2.2-1.9 0-.4-.9-.3-1.9.4-1.6 1-2.3.9-3.8-.3-3.6-3.1-4.7-3.2-1.8-.2zM92 60.8c.6 1.3 1.4 2.1 1.8 1.8.3-.4-.2-1.4-1.2-2.4-1.8-1.6-1.8-1.6-.6.6zM97 64.5c0 .2 1.4 1 3.1 1.9 2.3 1.2 2.8 1.2 2 .2-1.1-1.2-5.1-2.9-5.1-2.1zM89.9 67.7l-2.4 2.8 2.8-2.4c2.5-2.3 3.2-3.1 2.4-3.1-.2 0-1.4 1.2-2.8 2.7zM100 69.9c0 .6.4 1.3 1 1.6.6.3.7-.1.4-.9-.7-1.8-1.4-2.1-1.4-.7zM96 70.9c0 .5.5 1.3 1 1.6.6.3 1 .2 1-.4 0-.5-.4-1.3-1-1.6-.5-.3-1-.2-1 .4zM113.1 73.1c-.1.9-1.2 3.3-2.6 5.3-1.3 2-2 3.6-1.5 3.6 1.3 0 5.2-7.9 4.6-9.3-.2-.7-.5-.5-.5.4zM88.2 74.3c-1.2.7-2.9 2.4-3.8 3.7-1.6 2.5-1.6 2.5.3.4 1.1-1.2 3.2-2.8 4.8-3.7 1.7-.9 2.6-1.6 2-1.6-.5 0-2 .5-3.3 1.2zM96.2 76.5c-.6 1.4-1 2.5-.8 2.5.2 0 1.1-1.1 2-2.5.9-1.4 1.3-2.5.8-2.5s-1.4 1.1-2 2.5zM106.4 79.1c-1 1.2-3.2 3-4.9 4-1.6 1.1-2.4 1.9-1.7 1.9 1.2 0 10.3-7.9 9.1-8-.3 0-1.4 1-2.5 2.1zM75 78.9c0 1 3.9 3.6 4.5 2.9.2-.2-.8-1.1-2.1-2.1s-2.4-1.3-2.4-.8zM104.3 84.2c-1.1 1.9-1.3 3.9-.1 3.2.5-.3.7-.9.4-1.2-.3-.3-.1-1.1.5-1.9.6-.7.9-1.3.6-1.3-.3 0-.9.6-1.4 1.2zM106.9 84.7c-1.3 1.6-1.2 1.7.4.4.9-.7 1.7-1.5 1.7-1.7 0-.8-.8-.3-2.1 1.3zM86.6 86c.5.8.9 1.9.9 2.4s1.1 1.1 2.4 1.3c1.4.2 2.3.2 2 .1-.2-.2-1.7-1.4-3.3-2.8-1.6-1.4-2.5-1.8-2-1zM49 112.6v18.5l2.3-.3c2.2-.3 2.2-.5 2.2-15.1 0-8.1.3-14.7.6-14.7s1.7 2.2 3 5c1.3 2.7 2.9 5 3.6 5 .7 0 1.9-1.5 2.7-3.3.8-1.7 2.1-4.1 3-5.2 1.4-1.8 1.5-.8 1.6 13.3 0 15 0 15.3 2.1 15 2-.3 2.1-.8 2-18.3v-18l-2.8-.3c-2.3-.2-3.2.4-5.3 3.8-1.4 2.2-2.8 4-3.1 4-.4 0-1.8-1.8-3.3-4-2.1-3.2-3.2-4-5.6-4h-3v18.6zM84 110.9c0 20.3-.1 20.1 11.7 20.1 11.2 0 11.3-.2 11.3-20 0-13.6-.2-16.2-1.5-16.7-.9-.3-1.8-.3-2.1 0-.3.3-.5 6.9-.5 14.6.1 8.4-.2 14.9-.9 16.1-.9 1.6-2.1 2-6.4 2-3.2 0-5.8-.5-6.4-1.3-.7-.8-1.3-7.3-1.4-16.3-.3-13.2-.5-14.9-2-15.2-1.7-.3-1.8 1-1.8 16.7zM119.4 96.5c-2.2 3.4-1.7 4.3 9 18 4.7 6 8.6 11.3 8.6 11.7 0 .5-2.9.8-6.4.8-5.4 0-6.6-.3-7.8-2.2-.9-1.4-2-1.9-3.1-1.5-2.3.9-2.1 3.3.3 5.7 2.8 2.8 17.8 3 20.3.2 1-1 1.7-2.6 1.7-3.4 0-.8-4.3-7-9.5-13.6S123 99.9 123 99.6c0-.3 3.1-.6 6.9-.6 6 0 6.9.2 7.4 2 .3 1.1 1.2 2 2 2 2.5 0 2.9-3.2.9-6-1.8-2.3-2.6-2.5-10.5-2.8-8.3-.3-8.7-.2-10.3 2.3zM153.4 95.5c-1 2.4.5 3.5 4.7 3.5h3.9v28h-4.5c-3.8 0-4.5.3-4.5 2 0 1.9.7 2 11.5 2s11.5-.1 11.5-2c0-1.7-.7-2-4.5-2H167V99.1l4.3-.3c3.5-.2 4.3-.7 4.5-2.6.3-2.2.2-2.2-10.8-2.2-8.7 0-11.2.3-11.6 1.5zM196.2 94.7c-2.2.9-9.3 16.5-8.7 19 1.1 4.6 6.9 15.4 8.7 16.4 1 .5 4.6.9 8.1.7 4.9-.2 6.2-.7 6.5-2 .3-1.4-.7-1.7-6-2l-6.3-.3-3.2-6c-1.8-3.3-3.3-6.8-3.3-7.8s1.3-4.4 3-7.7l3-5.9 6.2-.3c5.5-.3 6.3-.5 6.3-2.3 0-1.8-.7-2-6.5-2.2-3.6-.1-7.1.1-7.8.4zM51.8 140.1c-3.3 1.9-2 5.4 5.7 15.2 4.1 5.2 7.5 9.8 7.5 10.1 0 .3-2.5.6-5.5.6-4 0-5.7-.4-6.1-1.5-1-2.4-3.4-1.7-3.4 1 0 3.3 2.7 4.5 10.2 4.5 11.1 0 11.5-2.8 1.8-15.1-9.5-12-9.5-11.9-2.6-11.9 4.3 0 5.6.3 5.6 1.5 0 .8.9 1.5 2 1.5 2.8 0 2.6-3.5-.2-5.4-2.6-1.8-12.3-2.1-15-.5zM85.7 140.1c-1.9 1.1-7.7 11.9-7.7 14.4 0 2.1 5.5 12.8 7.3 14.4 2.2 1.8 12.2 1.1 12.2-.9 0-1.1-1.4-1.6-5.3-1.8-5.2-.3-5.2-.4-7.7-5.2-3.1-6.1-3.1-6.9 0-13 2.5-4.8 2.5-4.9 7.7-5.2 3.9-.2 5.3-.7 5.3-1.8 0-1.8-9-2.6-11.8-.9zM107.7 139.7c-.4.3-.7 7.3-.7 15.5 0 13.7.1 14.9 1.8 14.6 1.4-.3 1.7-1.5 1.8-6.8l.1-6.5 5.6-.3 5.6-.3.3 6.8c.2 5.6.6 6.8 2.1 7.1 1.6.3 1.7-.7 1.5-15-.3-12.8-.5-15.3-1.8-15.3-1.2 0-1.6 1.6-1.8 6.8l-.3 6.8-5.7-.3-5.6-.3.3-4.7c.4-6.8-1-10.3-3.2-8.1zM142.7 140.1c-1.9 1.1-7.7 11.9-7.7 14.4 0 .8 1.5 4.4 3.2 8 3.5 7 6.4 8.9 9.5 6.4 1.6-1.4 7.3-12.5 7.3-14.4 0-2.4-6-13.4-7.9-14.4-2.3-1.3-2.1-1.3-4.4 0zm5.8 8.9l2.9 6.1-2.7 5.4c-1.5 3-3.1 5.5-3.7 5.5-1.2 0-6-9.2-6-11.5 0-2 4.8-11.5 5.8-11.5.5 0 2.1 2.7 3.7 6zM171.2 139.7c-1.9.7-7.2 11.8-7.2 15 0 1.5 1.5 5.5 3.3 8.8 2.8 5.3 3.6 6 6.2 6s3.4-.7 6.2-6c4-7.4 4.1-10 .3-17.4-3.2-6.5-5.1-7.9-8.8-6.4zm5.3 8.3c1.4 2.7 2.5 6 2.5 7.2 0 2.6-3.9 10-5.6 10.5-.6.2-2.3-2.2-3.7-5.4-2.4-5.4-2.5-5.9-1.1-9.2 1.6-3.9 4.2-8.1 4.9-8.1.3 0 1.6 2.2 3 5zM192.7 139.6c-.4.4-.7 7.4-.7 15.6v14.9l9.8-.3c7.8-.2 9.7-.6 9.7-1.8 0-1.2-1.7-1.6-7.7-1.8l-7.7-.3-.3-13.1c-.3-12.2-1-15.3-3.1-13.2zM50 194v13h5.4c6.8 0 10.6-2.6 10.6-7.4 0-1.7-.5-3.7-1.1-4.3-.8-.8-.8-1.7 0-3.1 1.5-2.9 1.4-6.4-.5-9-1.3-1.9-2.4-2.2-8-2.2H50v13zm12.4-7.8c1.8 2.9-.4 5.3-5.3 5.6l-4.1.3v-8.2l4.1.3c2.7.2 4.6.9 5.3 2zm-.6 10c1.8 1.8 1.4 5.6-.7 6.8-1.1.5-3.3 1-5 1-3 0-3.1-.1-3.1-4.5V195h3.8c2.1 0 4.3.5 5 1.2zM79.2 182.2c-2 2.6-5.2 9.8-5.2 11.8 0 2.9 4.6 11.6 6.5 12.3 2.6 1.1 4.5-.4 7-5.4 2.9-5.7 3.1-8.8.9-13.2-3.2-6.3-6.8-8.4-9.2-5.5zM85 188c1.1 2.1 2 4.6 2 5.5 0 2.2-3.8 9.5-5 9.5-.6 0-2-2-3.2-4.5l-2.2-4.4L79 189c1.3-2.7 2.7-5 3.2-5 .4 0 1.7 1.8 2.8 4zM103.2 182.2c-1.7 2.3-5.2 9.7-5.2 11.2 0 .9 1.2 4 2.7 7.1 4.1 8.2 7.3 8.3 11.4.4 2.6-5.1 2.4-9-.6-14.9-2-3.9-3.1-5-4.9-5-1.3 0-2.8.6-3.4 1.2zm5.8 5.8c2.6 5.1 2.5 7.6-.4 12.4l-2.4 4-2.7-5.4-2.7-5.3 2.3-4.9c1.2-2.6 2.6-4.8 3.1-4.8.4 0 1.7 1.8 2.8 4zM122.2 193.7c.2 9 .7 12.8 1.6 13.1.8.2 1.2-1 1.2-4.2 0-2.5.3-4.6.8-4.6.4 0 3.1 2.1 6 4.6 4.1 3.6 5.6 4.4 6.5 3.5.9-1 .7-1.6-.9-2.9-1.1-.9-4-3.4-6.5-5.5l-4.4-3.9 6.5-5.8c3.6-3.2 6.2-6.2 5.7-6.6-1-1-4.5 1-8.9 5.1-2 1.9-3.9 3.5-4.2 3.5-.3 0-.6-2-.6-4.5 0-3.4-.4-4.5-1.5-4.5-1.3 0-1.5 1.8-1.3 12.7zM146.7 181.6c-1.2 1.2.4 2.4 3.4 2.4h2.9v20h-3c-2 0-3 .5-3 1.5 0 1.3 1.3 1.5 7.7 1.3 4.8-.2 7.8-.7 8-1.5.3-.7-.9-1.3-2.9-1.5l-3.3-.3-.3-9.7-.3-9.7 3.2-.3c1.8-.2 3.4-.9 3.7-1.6.3-.9-1.7-1.2-7.5-1.2-4.4 0-8.3.3-8.6.6zM171 194c0 10.1.3 13.1 1.3 12.8.8-.3 1.4-3.7 1.7-10.3l.5-9.8 4.1 9.9c3.2 7.6 4.7 10 6.3 10.2 2 .3 2.1 0 2.1-12.7 0-10.8-.3-13.1-1.5-13.1-1.1 0-1.5 2-1.7 9.7l-.3 9.7-4-9.4c-3.2-7.5-4.5-9.6-6.3-9.8-2.2-.3-2.2-.2-2.2 12.8zM198.5 185.6c-3.2 4.3-3.5 5.3-3.5 11.4 0 8.1 1.5 10 7.9 10 6.7 0 8.1-1.2 8.1-7.1v-5l-3.5.3c-4 .3-5.2 2.1-1.7 2.6 1.9.3 2.3.9 2 3-.3 2.9-2.9 3.9-7.4 2.8-2.2-.6-2.4-1.2-2.4-6.4 0-4.9.4-6.3 3.1-9.5 2.4-3 3.7-3.7 6.5-3.7 2.4 0 3.4-.5 3.4-1.5 0-1.1-1.2-1.5-4.5-1.5-4.1 0-4.7.3-8 4.6z"/></svg>